<svg xmlns="http://www.w3.org/2000/svg" xmlns:xlink="http://www.w3.org/1999/xlink" width="167" height="175" viewBox="0 0 167 175">
  <defs>
    <filter id="Retângulo_35" x="0" y="0" width="167" height="175" filterUnits="userSpaceOnUse">
      <feOffset dy="3" input="SourceAlpha"/>
      <feGaussianBlur stdDeviation="3" result="blur"/>
      <feFlood flood-opacity="0.161"/>
      <feComposite operator="in" in2="blur"/>
      <feComposite in="SourceGraphic"/>
    </filter>
    <clipPath id="clip-path">
      <rect id="Retângulo_36" data-name="Retângulo 36" width="66.612" height="66.613"/>
    </clipPath>
  </defs>
  <g id="icon_03" transform="translate(9 -0.145)">
    <g id="Grupo_54" data-name="Grupo 54" transform="translate(0 0)">
      <g transform="matrix(1, 0, 0, 1, -9, 0.14)" filter="url(#Retângulo_35)">
        <rect id="Retângulo_35-2" data-name="Retângulo 35" width="149" height="157" rx="25" transform="translate(9 6)" fill="#aed66b"/>
      </g>
    </g>
    <g id="Grupo_39" data-name="Grupo 39" transform="translate(40.72 51.771)">
      <g id="Grupo_38" data-name="Grupo 38" clip-path="url(#clip-path)">
        <path id="Caminho_70" data-name="Caminho 70" d="M1.346,37.438h63.92a1.346,1.346,0,0,0,1.265-1.806L53.873.885A1.347,1.347,0,0,0,52.608,0H14a1.346,1.346,0,0,0-1.265.885L.081,35.632a1.345,1.345,0,0,0,1.265,1.806m37.2-34.747,1.568,12.995-13.614,0,1.567-13Zm1.892,15.686,1.975,16.369H24.2L26.174,18.38Zm4.686,16.369L43.148,18.377l14.232,0,5.964,16.372ZM56.4,15.683l-13.576,0L41.256,2.691h10.41ZM14.945,2.691h10.41l-1.568,13-13.578,0ZM9.229,18.383l14.234,0L21.489,34.747H3.268Z" transform="translate(0)"/>
        <path id="Caminho_71" data-name="Caminho 71" d="M57.754,85.4H49.812l4.083-8.124a1.346,1.346,0,1,0-2.4-1.209L46.428,86.137a1.345,1.345,0,0,0,1.2,1.95h7.942l-4.082,8.124a1.346,1.346,0,1,0,2.4,1.208l5.062-10.074a1.346,1.346,0,0,0-1.2-1.95" transform="translate(-19.386 -31.548)"/>
        <path id="Caminho_72" data-name="Caminho 72" d="M98.721,92.656H81.22a1.346,1.346,0,1,0,0,2.691h17.5a1.346,1.346,0,0,0,0-2.691" transform="translate(-33.455 -38.808)"/>
        <path id="Caminho_73" data-name="Caminho 73" d="M18.847,92.656H1.346a1.346,1.346,0,1,0,0,2.691h17.5a1.346,1.346,0,0,0,0-2.691" transform="translate(0 -38.808)"/>
      </g>
    </g>
  </g>
</svg>
