<svg xmlns="http://www.w3.org/2000/svg" xmlns:xlink="http://www.w3.org/1999/xlink" width="167" height="175" viewBox="0 0 167 175">
  <defs>
    <filter id="Retângulo_35" x="0" y="0" width="167" height="175" filterUnits="userSpaceOnUse">
      <feOffset dy="3" input="SourceAlpha"/>
      <feGaussianBlur stdDeviation="3" result="blur"/>
      <feFlood flood-opacity="0.161"/>
      <feComposite operator="in" in2="blur"/>
      <feComposite in="SourceGraphic"/>
    </filter>
    <clipPath id="clip-path">
      <rect id="Retângulo_78" data-name="Retângulo 78" width="74.932" height="70.187" fill="#343e24"/>
    </clipPath>
  </defs>
  <g id="icon_01" transform="translate(9)">
    <g id="Grupo_54" data-name="Grupo 54" transform="translate(0 0)">
      <g transform="matrix(1, 0, 0, 1, -9, 0)" filter="url(#Retângulo_35)">
        <rect id="Retângulo_35-2" data-name="Retângulo 35" width="149" height="157" rx="25" transform="translate(9 6)" fill="#aed66b"/>
      </g>
    </g>
    <g id="Grupo_288" data-name="Grupo 288" transform="translate(37.06 49.408)">
      <g id="Grupo_287" data-name="Grupo 287" clip-path="url(#clip-path)">
        <path id="Caminho_677" data-name="Caminho 677" d="M73.237,10.508H63.1a1.694,1.694,0,0,0,0,3.389h8.44V35.011H54.092A1.694,1.694,0,0,0,52.4,36.706V66.8H31.538v-4.09l8.348-6.922a1.695,1.695,0,1,0-2.164-2.609l-8.96,7.43a1.693,1.693,0,0,0-.613,1.3V66.8H6.223V57.383H7.362a1.694,1.694,0,1,0,0-3.389H6.223V46.386H7.362a1.694,1.694,0,1,0,0-3.389H6.223V27.19H7.362a1.694,1.694,0,1,0,0-3.389H6.223V16.192H7.362a1.694,1.694,0,1,0,0-3.389H6.223V3.389H27.2l10.11,9.544V35.011H29.844a1.694,1.694,0,0,0-1.694,1.694V48a1.694,1.694,0,1,0,3.389,0V38.4H39A1.694,1.694,0,0,0,40.7,36.706V13.9h8.563a1.694,1.694,0,0,0,1.3-.613l7.429-8.96a1.694,1.694,0,1,0-2.608-2.163l-6.922,8.347H39.675L29.033.462A1.694,1.694,0,0,0,27.87,0H4.529A1.694,1.694,0,0,0,2.834,1.694V12.8H1.694a1.694,1.694,0,1,0,0,3.389h1.14V23.8H1.694a1.694,1.694,0,0,0,0,3.389h1.14V43H1.694a1.694,1.694,0,0,0,0,3.389h1.14v7.608H1.694a1.694,1.694,0,0,0,0,3.389h1.14v11.11a1.694,1.694,0,0,0,1.694,1.694H73.237a1.694,1.694,0,0,0,1.694-1.694V12.2a1.694,1.694,0,0,0-1.694-1.694M71.543,49.822H55.786V38.4H71.543ZM55.786,53.21H71.543V66.8H55.786Z" transform="translate(0 0)" fill="#343e24"/>
        <path id="Caminho_678" data-name="Caminho 678" d="M31.458,19.08a1.7,1.7,0,0,0-2.4,0l-2.851,2.851L23.359,19.08a1.695,1.695,0,0,0-2.4,2.4l2.851,2.852L20.962,27.18a1.695,1.695,0,0,0,2.4,2.4l2.851-2.851,2.851,2.851a1.695,1.695,0,0,0,2.4-2.4l-2.851-2.851,2.851-2.852a1.694,1.694,0,0,0,0-2.4" transform="translate(-4.544 -4.126)" fill="#343e24"/>
      </g>
    </g>
  </g>
</svg>
