<svg xmlns="http://www.w3.org/2000/svg" xmlns:xlink="http://www.w3.org/1999/xlink" width="167" height="175" viewBox="0 0 167 175">
  <defs>
    <filter id="Retângulo_35" x="0" y="0" width="167" height="175" filterUnits="userSpaceOnUse">
      <feOffset dy="3" input="SourceAlpha"/>
      <feGaussianBlur stdDeviation="3" result="blur"/>
      <feFlood flood-opacity="0.161"/>
      <feComposite operator="in" in2="blur"/>
      <feComposite in="SourceGraphic"/>
    </filter>
    <clipPath id="clip-path">
      <rect id="Retângulo_80" data-name="Retângulo 80" width="72.235" height="72.227"/>
    </clipPath>
  </defs>
  <g id="icon_05" transform="translate(-747 -4824)">
    <g transform="matrix(1, 0, 0, 1, 747, 4824)" filter="url(#Retângulo_35)">
      <rect id="Retângulo_35-2" data-name="Retângulo 35" width="149" height="157" rx="25" transform="translate(9 6)" fill="#aed66b"/>
    </g>
    <g id="Grupo_293" data-name="Grupo 293" transform="translate(794 4872)">
      <g id="Grupo_292" data-name="Grupo 292" transform="translate(0 0)" clip-path="url(#clip-path)">
        <path id="Caminho_682" data-name="Caminho 682" d="M40.116,3.267h4.514a1.633,1.633,0,1,0,0-3.267H40.116a1.633,1.633,0,0,0,0,3.267" transform="translate(-9.624 0)"/>
        <path id="Caminho_683" data-name="Caminho 683" d="M20.137,3.267h4.514a1.633,1.633,0,0,0,0-3.267H20.137a1.633,1.633,0,0,0,0,3.267" transform="translate(-4.628 0)"/>
        <path id="Caminho_684" data-name="Caminho 684" d="M93.516,67.36a1.633,1.633,0,0,0-1.633,1.633v4.514a1.633,1.633,0,0,0,3.267,0V68.993a1.633,1.633,0,0,0-1.633-1.633" transform="translate(-22.978 -16.846)"/>
        <path id="Caminho_685" data-name="Caminho 685" d="M95.15,49.012a1.633,1.633,0,1,0-3.266,0v4.515a1.633,1.633,0,0,0,3.266,0Z" transform="translate(-22.979 -11.849)"/>
        <path id="Caminho_686" data-name="Caminho 686" d="M72.682,24.721a3.266,3.266,0,1,0-3.266-3.266,3.27,3.27,0,0,0,3.266,3.266" transform="translate(-17.36 -4.549)"/>
        <path id="Caminho_687" data-name="Caminho 687" d="M52.189,20.039l3.084,1.391A13.487,13.487,0,0,0,55.84,22.8l-1.2,3.164a1.634,1.634,0,0,0,.373,1.732l2.327,2.327a1.633,1.633,0,0,0,1.732.373l3.163-1.2a13.486,13.486,0,0,0,1.369.567L65,32.849a1.634,1.634,0,0,0,1.489.961h3.291a1.634,1.634,0,0,0,1.489-.961l1.391-3.084a13.483,13.483,0,0,0,1.369-.567l3.164,1.2a1.633,1.633,0,0,0,1.732-.373L81.251,27.7a1.633,1.633,0,0,0,.373-1.732l-1.2-3.164a13.648,13.648,0,0,0,.566-1.369l3.084-1.391a1.632,1.632,0,0,0,.961-1.489V15.26a1.632,1.632,0,0,0-.961-1.489L80.993,12.38a13.709,13.709,0,0,0-.566-1.369l1.2-3.164a1.633,1.633,0,0,0-.373-1.732L78.924,3.789a1.633,1.633,0,0,0-1.732-.373l-3.164,1.2a13.482,13.482,0,0,0-1.369-.567L71.267.961A1.634,1.634,0,0,0,69.779,0H66.488A1.634,1.634,0,0,0,65,.961L63.608,4.045a13.659,13.659,0,0,0-1.369.567l-3.163-1.2a1.632,1.632,0,0,0-1.732.373L55.016,6.115a1.635,1.635,0,0,0-.373,1.732l1.2,3.164a13.546,13.546,0,0,0-.567,1.369l-3.084,1.392a1.634,1.634,0,0,0-.961,1.489v3.291a1.634,1.634,0,0,0,.961,1.489m2.305-3.724,2.784-1.256a1.63,1.63,0,0,0,.9-1.036,10.335,10.335,0,0,1,.878-2.122,1.631,1.631,0,0,0,.1-1.368l-1.08-2.856.835-.834,2.855,1.08a1.638,1.638,0,0,0,1.369-.1,10.25,10.25,0,0,1,2.122-.878,1.635,1.635,0,0,0,1.036-.9l1.255-2.784h1.181L69.979,6.05a1.635,1.635,0,0,0,1.036.9,10.249,10.249,0,0,1,2.122.878,1.634,1.634,0,0,0,1.368.1l2.855-1.08.835.834-1.081,2.856a1.634,1.634,0,0,0,.1,1.368,10.317,10.317,0,0,1,.878,2.122,1.63,1.63,0,0,0,.9,1.036l2.784,1.256V17.5l-2.784,1.256a1.63,1.63,0,0,0-.9,1.036,10.3,10.3,0,0,1-.878,2.122,1.634,1.634,0,0,0-.1,1.368l1.081,2.856-.835.835L74.5,25.887a1.634,1.634,0,0,0-1.368.1,10.282,10.282,0,0,1-2.122.878,1.637,1.637,0,0,0-1.036.9l-1.255,2.784H67.542L66.287,27.76a1.637,1.637,0,0,0-1.036-.9,10.283,10.283,0,0,1-2.122-.878,1.636,1.636,0,0,0-1.368-.1l-2.855,1.08-.835-.835,1.08-2.856a1.631,1.631,0,0,0-.1-1.368,10.324,10.324,0,0,1-.878-2.122,1.631,1.631,0,0,0-.9-1.035L54.495,17.5Z" transform="translate(-12.811 0)"/>
        <path id="Caminho_688" data-name="Caminho 688" d="M71.661,69.352,2.788.478A1.633,1.633,0,0,0,0,1.633V70.594a1.633,1.633,0,0,0,1.633,1.633H70.6a1.633,1.633,0,0,0,1.059-2.876m-21.21-.391V67.334a1.633,1.633,0,1,0-3.267,0v1.627H41.74V67.334a1.633,1.633,0,1,0-3.267,0v1.627H33.03V67.334a1.634,1.634,0,0,0-3.267,0v1.627H24.318V67.334a1.633,1.633,0,1,0-3.266,0v1.627H15.608V67.334a1.633,1.633,0,1,0-3.267,0v1.627H3.267V5.576L66.652,68.961Z" transform="translate(0 0)"/>
        <path id="Caminho_689" data-name="Caminho 689" d="M18.089,69.823H44.924a1.634,1.634,0,0,0,1.06-2.877L19.243,40.206a1.632,1.632,0,0,0-2.787,1.155V68.19a1.633,1.633,0,0,0,1.633,1.633M19.723,45.3,40.975,66.556H19.723Z" transform="translate(-4.115 -9.935)"/>
      </g>
    </g>
  </g>
</svg>
